<svg width="12" height="16" viewBox="0 0 12 16" fill="none" xmlns="http://www.w3.org/2000/svg">
<g clip-path="url(#clip0_30_6)">
<path d="M5.99472 15.9994C5.61643 15.5334 5.24381 15.0856 4.88254 14.6305C3.79971 13.2804 2.79956 11.8715 1.88712 10.4109C1.29698 9.45546 0.761071 8.47411 0.361974 7.42766C-0.35993 5.53367 0.0278205 3.81088 1.25916 2.23698C2.18534 1.0555 3.44567 0.337575 4.9664 0.087415C7.46438 -0.323089 9.88796 0.75049 11.1804 2.84098C11.7895 3.80696 12.071 4.92948 11.9862 6.05449C11.9452 6.62895 11.7523 7.17388 11.5323 7.70735C10.9648 9.09378 10.1773 10.3651 9.3388 11.6117C8.33504 13.0953 7.24928 14.5268 6.08614 15.8999C6.0647 15.9259 6.03822 15.9518 5.99472 15.9994ZM6.01994 14.188C6.73301 13.2079 7.43727 12.2705 8.10747 11.3115C8.98195 10.0583 9.78708 8.76646 10.3974 7.37039C10.7889 6.47584 10.9352 5.56984 10.6748 4.61079C10.0222 2.20865 7.51481 0.708897 4.98342 1.2478C3.32714 1.60164 2.17336 2.55707 1.52963 4.0508C1.12927 4.9791 1.05992 5.93152 1.42371 6.89961C1.69718 7.61586 2.02834 8.31075 2.4142 8.97804C3.24581 10.4338 4.20919 11.8112 5.22238 13.1536C5.47331 13.4876 5.73181 13.8149 6.01994 14.188Z" fill="white"/>
<path d="M6.01925 3.44501C6.35101 3.44279 6.67991 3.50364 6.98686 3.62402C7.29381 3.7444 7.57267 3.9219 7.80724 4.14622C8.04181 4.37053 8.22741 4.63718 8.35326 4.93067C8.4791 5.22417 8.54268 5.53864 8.5403 5.85583C8.53792 6.17302 8.46962 6.48659 8.33938 6.77833C8.20914 7.07006 8.01956 7.33413 7.78164 7.5552C7.54373 7.77628 7.26223 7.94993 6.95351 8.06609C6.64479 8.18224 6.315 8.23857 5.98331 8.2318C4.62147 8.2318 3.48911 7.13954 3.49416 5.83328C3.49439 5.51752 3.56006 5.20494 3.68738 4.91359C3.81469 4.62224 4.00113 4.35789 4.23592 4.13583C4.47071 3.91376 4.74919 3.73838 5.05528 3.6198C5.36137 3.50123 5.689 3.44182 6.01925 3.44501ZM6.01925 4.58067C5.75928 4.57924 5.5047 4.65158 5.28775 4.78853C5.07079 4.92548 4.9012 5.12089 4.80045 5.35002C4.69969 5.57916 4.6723 5.83172 4.72173 6.07574C4.77117 6.31977 4.89521 6.54429 5.07815 6.72089C5.2611 6.89749 5.49473 7.01823 5.74947 7.06783C6.00422 7.11744 6.26864 7.09367 6.50925 6.99955C6.74987 6.90543 6.95587 6.74517 7.10118 6.53907C7.2465 6.33297 7.32461 6.09028 7.32561 5.84172C7.32529 5.50913 7.1877 5.19011 6.94272 4.95397C6.69775 4.71784 6.3652 4.58369 6.01736 4.58067H6.01925Z" fill="white"/>
</g>
<defs>
<clipPath id="clip0_30_6">
<rect width="12" height="16" fill="white"/>
</clipPath>
</defs>
</svg>
