<svg xmlns="http://www.w3.org/2000/svg" width="18" height="19" fill="none"><path d="M 7 6 L 3 6 C 1.895 6 1 6.895 1 8 L 1 15 C 1 16.105 1.895 17 3 17 L 7 17" fill="transparent" stroke="rgb(255,255,255)" stroke-miterlimit="10" stroke-dasharray=""></path><path d="M 10 17.5 C 9.172 17.5 8.5 16.828 8.5 16 L 8.5 3 C 8.5 2.172 9.172 1.5 10 1.5 L 15 1.5 C 15.828 1.5 16.5 2.172 16.5 3 L 16.5 16 C 16.5 16.828 15.828 17.5 15 17.5 Z" fill="transparent" stroke="rgb(255,255,255)" stroke-miterlimit="10" stroke-dasharray=""></path><path d="M 4 10.5 C 3.724 10.5 3.5 10.276 3.5 10 L 3.5 9 C 3.5 8.724 3.724 8.5 4 8.5 L 5 8.5 C 5.276 8.5 5.5 8.724 5.5 9 L 5.5 10 C 5.5 10.276 5.276 10.5 5 10.5 Z" fill="transparent" stroke="rgb(255,255,255)" stroke-miterlimit="10" stroke-dasharray=""></path><path d="M 12 6.5 C 11.724 6.5 11.5 6.276 11.5 6 L 11.5 5 C 11.5 4.724 11.724 4.5 12 4.5 L 13 4.5 C 13.276 4.5 13.5 4.724 13.5 5 L 13.5 6 C 13.5 6.276 13.276 6.5 13 6.5 Z" fill="transparent" stroke="rgb(255,255,255)" stroke-miterlimit="10" stroke-dasharray=""></path><path d="M 12 10.5 C 11.724 10.5 11.5 10.276 11.5 10 L 11.5 9 C 11.5 8.724 11.724 8.5 12 8.5 L 13 8.5 C 13.276 8.5 13.5 8.724 13.5 9 L 13.5 10 C 13.5 10.276 13.276 10.5 13 10.5 Z" fill="transparent" stroke="rgb(255,255,255)" stroke-miterlimit="10" stroke-dasharray=""></path><path d="M 12 14.5 C 11.724 14.5 11.5 14.276 11.5 14 L 11.5 13 C 11.5 12.724 11.724 12.5 12 12.5 L 13 12.5 C 13.276 12.5 13.5 12.724 13.5 13 L 13.5 14 C 13.5 14.276 13.276 14.5 13 14.5 Z" fill="transparent" stroke="rgb(255,255,255)" stroke-miterlimit="10" stroke-dasharray=""></path><path d="M 4 14.5 C 3.724 14.5 3.5 14.276 3.5 14 L 3.5 13 C 3.5 12.724 3.724 12.5 4 12.5 L 5 12.5 C 5.276 12.5 5.5 12.724 5.5 13 L 5.5 14 C 5.5 14.276 5.276 14.5 5 14.5 Z" fill="transparent" stroke="rgb(255,255,255)" stroke-miterlimit="10" stroke-dasharray=""></path></svg>