<svg xmlns="http://www.w3.org/2000/svg" width="18" height="14" fill="none"><path d="M 4 4 L 1 4" fill="transparent" stroke="rgb(255,255,255)" stroke-linecap="round" stroke-miterlimit="10" stroke-dasharray=""></path><path d="M 4 10 L 1 10" fill="transparent" stroke="rgb(255,255,255)" stroke-linecap="round" stroke-miterlimit="10" stroke-dasharray=""></path><path d="M 16 4 L 13 4" fill="transparent" stroke="rgb(255,255,255)" stroke-linecap="round" stroke-miterlimit="10" stroke-dasharray=""></path><path d="M 16 10 L 13 10" fill="transparent" stroke="rgb(255,255,255)" stroke-linecap="round" stroke-miterlimit="10" stroke-dasharray=""></path><path d="M 4 13 L 4 1" fill="transparent" stroke="rgb(255,255,255)" stroke-linecap="round" stroke-miterlimit="10" stroke-dasharray=""></path><path d="M 13 13 L 13 1" fill="transparent" stroke="rgb(255,255,255)" stroke-linecap="round" stroke-miterlimit="10" stroke-dasharray=""></path><path d="M 1 7 L 16 7" fill="transparent" stroke="rgb(255,255,255)" stroke-linecap="round" stroke-miterlimit="10" stroke-dasharray=""></path><path d="M 1 11 L 1 3 C 1 1.895 1.895 1 3 1 L 14.5 1 C 15.605 1 16.5 1.895 16.5 3 L 16.5 11 C 16.5 12.105 15.605 13 14.5 13 L 3 13 C 1.895 13 1 12.105 1 11 Z" fill="transparent" stroke="rgb(255,255,255)" stroke-linecap="round" stroke-miterlimit="10" stroke-dasharray=""></path></svg>