<svg xmlns="http://www.w3.org/2000/svg" width="21" height="14" fill="none"><path d="M 1 11 L 1 6.448 C 1 5.848 1.269 5.28 1.734 4.9 L 5.234 2.036 C 5.97 1.433 7.03 1.433 7.766 2.036 L 11.267 4.9 C 11.731 5.28 12 5.848 12 6.448 L 12 11 C 12 12.105 11.105 13 10 13 L 3 13 C 1.895 13 1 12.105 1 11 Z" fill="transparent" stroke="rgb(255,255,255)" stroke-miterlimit="10" stroke-dasharray=""></path><path d="M 6 8.5 C 5.724 8.5 5.5 8.276 5.5 8 L 5.5 7 C 5.5 6.724 5.724 6.5 6 6.5 L 7 6.5 C 7.276 6.5 7.5 6.724 7.5 7 L 7.5 8 C 7.5 8.276 7.276 8.5 7 8.5 Z" fill="transparent" stroke="rgb(255,255,255)" stroke-miterlimit="10" stroke-dasharray=""></path><path d="M 15 8.5 C 14.724 8.5 14.5 8.276 14.5 8 L 14.5 7 C 14.5 6.724 14.724 6.5 15 6.5 L 16 6.5 C 16.276 6.5 16.5 6.724 16.5 7 L 16.5 8 C 16.5 8.276 16.276 8.5 16 8.5 Z" fill="transparent" stroke="rgb(255,255,255)" stroke-miterlimit="10" stroke-dasharray=""></path><path d="M 12 3 L 14.165 2.278 C 14.697 2.101 15.279 2.155 15.769 2.427 L 18.471 3.928 C 19.106 4.281 19.5 4.95 19.5 5.677 L 19.5 10.5 C 19.5 11.605 18.605 12.5 17.5 12.5 L 13.5 12.5" fill="transparent" stroke="rgb(255,255,255)" stroke-linecap="round" stroke-miterlimit="10" stroke-dasharray=""></path></svg>