<svg xmlns="http://www.w3.org/2000/svg" width="20" height="20" fill="none" overflow="visible"><g><path d="M 20 10 C 20 12.546 15.523 14.611 10 14.611 C 4.477 14.611 0 12.546 0 10 C 0 8.62 1.314 7.383 3.396 6.538" fill="transparent" stroke="rgb(255, 255, 255)" stroke-linecap="round" stroke-linejoin="round" stroke-dasharray=""></path><path d="M 12.275 18.994 C 11.588 19.638 10.816 20 10 20 C 7.129 20 4.801 15.523 4.801 10 C 4.801 4.477 7.128 0 10 0 C 11.394 0 12.659 1.055 13.592 2.772" fill="transparent" stroke="rgb(255, 255, 255)" stroke-linecap="round" stroke-linejoin="round" stroke-dasharray=""></path><path d="M 6.567 7.641 L 8.573 7.641 L 8.573 9.641 L 6.567 9.641 M 6.567 9.641 L 8.573 9.641 L 8.573 11.641 L 6.567 11.641 M 11.764 9.641 L 9.758 9.641 L 9.758 7.641 L 11.764 7.641 M 9.758 9.641 L 11.764 9.641 L 11.764 11.641 L 9.758 11.641 Z M 14.955 9.641 L 14.955 11.641 L 12.95 11.641 L 12.95 7.641 L 14.955 7.641 Z" fill="transparent" stroke-width="0.5" stroke="rgb(255, 255, 255)" stroke-linecap="round" stroke-linejoin="round" stroke-dasharray=""></path><path d="M 16.247 8.3 C 16.247 7.936 16.543 7.641 16.907 7.641 C 17.272 7.641 17.567 7.936 17.567 8.3 C 17.567 8.663 17.272 8.958 16.907 8.958 C 16.543 8.958 16.247 8.663 16.247 8.3 Z" fill="transparent" stroke-width="0.5" stroke="rgb(255, 255, 255)" stroke-linecap="round" stroke-linejoin="round" stroke-dasharray=""></path><path d="M 2.09 6.085 L 3.396 6.539 L 2.942 7.845 M 13.907 1.426 L 13.593 2.772 L 12.247 2.458" fill="transparent" stroke="rgb(255, 255, 255)" stroke-linecap="round" stroke-linejoin="round" stroke-dasharray=""></path></g></svg>