<svg xmlns="http://www.w3.org/2000/svg" width="21" height="12" fill="none"><path d="M 15.5 1.137 C 13.832 0.803 10.963 0.959 9 3 M 7 7.637 C 7.266 5.506 8.02 4.018 9 3 M 9 3 L 14.5 7.637" fill="transparent" stroke="rgb(255,255,255)" stroke-linecap="round" stroke-linejoin="round" stroke-dasharray=""></path><path d="M 2 10.637 L 2.8 10.037 C 3.511 9.503 4.489 9.503 5.2 10.037 L 5.467 10.237 C 5.813 10.496 6.234 10.637 6.667 10.637 L 7.333 10.637 C 7.766 10.637 8.187 10.496 8.533 10.237 L 8.8 10.037 C 9.511 9.503 10.489 9.503 11.2 10.037 L 11.467 10.237 C 11.813 10.496 12.234 10.637 12.667 10.637 L 13.333 10.637 C 13.766 10.637 14.187 10.496 14.533 10.237 L 15.011 9.878 C 15.617 9.424 16.428 9.351 17.106 9.689 L 19 10.637" fill="transparent" stroke="rgb(255,255,255)" stroke-linecap="round" stroke-miterlimit="10" stroke-dasharray=""></path><path d="M 3 3.137 C 3 2.308 3.672 1.637 4.5 1.637 C 5.328 1.637 6 2.308 6 3.137 C 6 3.965 5.328 4.637 4.5 4.637 C 3.672 4.637 3 3.965 3 3.137 Z" fill="transparent" stroke="rgb(255,255,255)" stroke-miterlimit="10" stroke-dasharray=""></path></svg>