<svg xmlns="http://www.w3.org/2000/svg" width="18" height="15" fill="none"><path d="M 9 14 C 8.095 13.394 6.098 12.508 3.785 12.514 C 2.401 12.518 1 11.537 1 10.154 C 1 8.119 1 5.401 1 3.301 C 1 2.455 1.53 1.696 2.35 1.493 C 4.544 0.951 7.784 0.588 9 1.891" fill="transparent" stroke="rgb(255,255,255)" stroke-linecap="round" stroke-miterlimit="10" stroke-dasharray=""></path><path d="M 9 14 C 9.905 13.394 11.902 12.508 14.215 12.514 C 15.599 12.518 17 11.537 17 10.154 C 17 8.119 17 5.401 17 3.301 C 17 2.455 16.47 1.696 15.65 1.493 C 13.456 0.951 10.216 0.588 9 1.891" fill="transparent" stroke="rgb(255,255,255)" stroke-linecap="round" stroke-miterlimit="10" stroke-dasharray=""></path><path d="M 9 2 L 9 14" fill="transparent" stroke="rgb(255,255,255)" stroke-linecap="round" stroke-miterlimit="10" stroke-dasharray=""></path></svg>