<svg width="32" height="32" viewBox="0 0 32 32" fill="none" xmlns="http://www.w3.org/2000/svg">
<path d="M21.044 15.8743C21.044 18.453 18.9535 20.5435 16.3748 20.5435C13.796 20.5435 11.7056 18.453 11.7056 15.8743C11.7056 13.2955 13.796 11.2051 16.3748 11.2051C18.9535 11.2051 21.044 13.2955 21.044 15.8743Z" fill="black" fill-opacity="0.5"/>
<path d="M16.4955 22.7314C16.8828 22.7314 17.1961 23.0458 17.1961 23.4321V25.2998C17.1961 25.687 16.8828 26.0004 16.4955 26.0004C16.1093 26.0004 15.7959 25.687 15.7959 25.2998V23.4321C15.7959 23.0458 16.1093 22.7314 16.4955 22.7314Z" fill="black" fill-opacity="0.5"/>
<path d="M11.9846 20.7055C12.1168 20.8378 12.1907 21.0158 12.1907 21.2011C12.1907 21.3874 12.1168 21.5655 11.9846 21.6966L9.90866 23.7715C9.63278 24.0286 9.20281 24.0214 8.9363 23.7548C8.66979 23.4883 8.66146 23.0573 8.9186 22.7814L10.9945 20.7055C11.2673 20.4328 11.7118 20.4328 11.9846 20.7055Z" fill="black" fill-opacity="0.5"/>
<path d="M21.2061 20.7055C21.4799 20.4328 21.9224 20.4328 22.1962 20.7055L24.271 22.7814C24.5282 23.0573 24.5209 23.4883 24.2544 23.7548C23.9878 24.0214 23.5568 24.0286 23.281 23.7715L21.2051 21.6966C20.9323 21.4228 20.9323 20.9804 21.2051 20.7066L21.2061 20.7055Z" fill="black" fill-opacity="0.5"/>
<path d="M23.231 15.9955C23.231 15.6093 23.5454 15.2959 23.9316 15.2959H25.7993C26.1866 15.2959 26.4999 15.6093 26.4999 15.9955C26.4999 16.3828 26.1866 16.6961 25.7993 16.6961H23.9316C23.5454 16.6961 23.231 16.3828 23.231 15.9955Z" fill="black" fill-opacity="0.5"/>
<path d="M6.5 15.9955C6.5 15.6093 6.81336 15.2959 7.20064 15.2959H9.06832C9.45456 15.2959 9.76896 15.6093 9.76896 15.9955C9.76896 16.3828 9.45456 16.6961 9.06832 16.6961H7.20064C6.81336 16.6961 6.5 16.3828 6.5 15.9955Z" fill="black" fill-opacity="0.5"/>
<path d="M24.2855 8.45911C24.4104 8.59549 24.477 8.77663 24.4687 8.96298C24.4604 9.14829 24.3781 9.32319 24.2417 9.44812L22.1669 11.345C21.8806 11.6 21.4423 11.5771 21.1841 11.295C20.9249 11.0118 20.9426 10.5735 21.2216 10.3112L23.2964 8.41434C23.4339 8.28941 23.615 8.22382 23.8003 8.23215C23.9856 8.23944 24.1595 8.32168 24.2855 8.45911Z" fill="black" fill-opacity="0.5"/>
<path d="M8.91434 8.45911C9.04031 8.32168 9.21521 8.23944 9.40052 8.23215C9.58583 8.22382 9.76802 8.28941 9.9044 8.41434L11.9792 10.3112C12.1677 10.4788 12.251 10.7359 12.1979 10.9827C12.1448 11.2294 11.9626 11.4282 11.7221 11.5032C11.4806 11.5782 11.2182 11.5178 11.034 11.345L8.95911 9.44812C8.82168 9.32319 8.73944 9.14829 8.73215 8.96298C8.72382 8.77663 8.78941 8.59549 8.91434 8.45911Z" fill="black" fill-opacity="0.5"/>
<path d="M16.4955 6C16.8828 6 17.1961 6.31336 17.1961 6.70064V8.56832C17.1961 8.95456 16.8828 9.26896 16.4955 9.26896C16.1093 9.26896 15.7959 8.95456 15.7959 8.56832V6.70064C15.7959 6.31336 16.1093 6 16.4955 6Z" fill="black" fill-opacity="0.5"/>
</svg>
