<svg width="32" height="32" viewBox="0 0 32 32" fill="none" xmlns="http://www.w3.org/2000/svg">
<g clip-path="url(#clip0_2444_2775)">
<path d="M23.2152 8.26491C23.1542 8.10791 23.0022 8.00391 22.8332 8.00391C22.6642 8.00391 22.5122 8.10791 22.4512 8.26491L22.0852 9.19591C22.0442 9.30191 21.9602 9.38691 21.8542 9.42891L20.9272 9.79591C20.7702 9.85891 20.6672 10.0109 20.6672 10.1799C20.6672 10.3489 20.7702 10.5009 20.9272 10.5639L21.8542 10.9309C21.9602 10.9719 22.0442 11.0569 22.0852 11.1629L22.4512 12.0929C22.5882 12.4409 23.0792 12.4409 23.2152 12.0929L23.5812 11.1619C23.6232 11.0559 23.7072 10.9719 23.8132 10.9299L24.7402 10.5629C24.8972 10.4999 25.0002 10.3479 25.0002 10.1789C25.0002 10.0099 24.8972 9.85791 24.7402 9.79491L23.8132 9.42791C23.7062 9.38591 23.6222 9.30191 23.5812 9.19491L23.2152 8.26491ZM19.9292 13.2149C19.8682 13.0569 19.7162 12.9529 19.5472 12.9529C19.3782 12.9529 19.2262 13.0569 19.1642 13.2149L19.0312 13.5539C18.9892 13.6599 18.9062 13.7439 18.8002 13.7859L18.4622 13.9199C18.3052 13.9829 18.2012 14.1349 18.2012 14.3039C18.2012 14.4729 18.3052 14.6249 18.4622 14.6879L18.8002 14.8209C18.9062 14.8639 18.9892 14.9469 19.0312 15.0539L19.1642 15.3929C19.3012 15.7419 19.7922 15.7419 19.9292 15.3929L20.0632 15.0529C20.1042 14.9469 20.1882 14.8629 20.2942 14.8209L20.6322 14.6879C20.7892 14.6249 20.8922 14.4729 20.8922 14.3039C20.8922 14.1349 20.7892 13.9829 20.6322 13.9199L20.2942 13.7859C20.1882 13.7439 20.1042 13.6599 20.0632 13.5539L19.9292 13.2149Z" fill="white"/>
<path opacity="0.5" d="M16.498 25C21.191 25 24.996 21.195 24.996 16.5C24.996 16.106 24.406 16.041 24.203 16.378C23.016 18.344 20.738 19.371 18.48 18.958C16.221 18.544 14.454 16.777 14.041 14.518C13.627 12.259 14.654 9.98 16.619 8.793C16.957 8.589 16.891 8 16.498 8C11.804 8 8 11.805 8 16.5C8 21.195 11.804 25 16.498 25Z" fill="white"/>
</g>
<defs>
<clipPath id="clip0_2444_2775">
<rect width="17" height="17" fill="white" transform="translate(8 8)"/>
</clipPath>
</defs>
</svg>
