<svg width="58" height="30" viewBox="0 0 58 30" fill="none" xmlns="http://www.w3.org/2000/svg">
<rect width="58" height="30" rx="15" fill="white" fill-opacity="0.5"/>
<rect x="5" y="5" width="20" height="20" rx="10" fill="white"/>
<g clip-path="url(#clip0_2931_4015)">
<path d="M44.7549 15.3003C44.7549 17.2071 43.2091 18.7529 41.3022 18.7529C39.3954 18.7529 37.8496 17.2071 37.8496 15.3003C37.8496 13.3935 39.3954 11.8477 41.3022 11.8477C43.2091 11.8477 44.7549 13.3935 44.7549 15.3003Z" fill="white"/>
<path d="M41.3923 20.3711C41.6787 20.3711 41.9104 20.6036 41.9104 20.8892V22.2702C41.9104 22.5566 41.6787 22.7883 41.3923 22.7883C41.1067 22.7883 40.875 22.5566 40.875 22.2702V20.8892C40.875 20.6036 41.1067 20.3711 41.3923 20.3711Z" fill="white"/>
<path d="M38.0563 18.8739C38.154 18.9717 38.2087 19.1033 38.2087 19.2404C38.2087 19.3782 38.154 19.5098 38.0563 19.6068L36.5212 21.141C36.3172 21.3312 35.9993 21.3258 35.8022 21.1287C35.6052 20.9317 35.599 20.6129 35.7891 20.4089L37.3242 18.8739C37.5259 18.6722 37.8546 18.6722 38.0563 18.8739Z" fill="white"/>
<path d="M44.8747 18.8739C45.0772 18.6722 45.4043 18.6722 45.6068 18.8739L47.141 20.4089C47.3312 20.6129 47.3258 20.9317 47.1287 21.1287C46.9317 21.3258 46.6129 21.3312 46.4089 21.141L44.8739 19.6068C44.6722 19.4043 44.6722 19.0772 44.8739 18.8747L44.8747 18.8739Z" fill="white"/>
<path d="M46.3711 15.3923C46.3711 15.1067 46.6036 14.875 46.8892 14.875H48.2702C48.5566 14.875 48.7883 15.1067 48.7883 15.3923C48.7883 15.6787 48.5566 15.9104 48.2702 15.9104H46.8892C46.6036 15.9104 46.3711 15.6787 46.3711 15.3923Z" fill="white"/>
<path d="M34 15.3923C34 15.1067 34.2317 14.875 34.5181 14.875H35.8991C36.1847 14.875 36.4172 15.1067 36.4172 15.3923C36.4172 15.6787 36.1847 15.9104 35.8991 15.9104H34.5181C34.2317 15.9104 34 15.6787 34 15.3923Z" fill="white"/>
<path d="M47.1517 9.82069C47.2441 9.92153 47.2934 10.0555 47.2872 10.1933C47.2811 10.3303 47.2202 10.4596 47.1194 10.552L45.5851 11.9546C45.3734 12.1432 45.0494 12.1263 44.8584 11.9177C44.6668 11.7083 44.6798 11.3842 44.8862 11.1902L46.4204 9.78758C46.522 9.69521 46.656 9.64671 46.793 9.65287C46.93 9.65825 47.0586 9.71907 47.1517 9.82069Z" fill="white"/>
<path d="M35.7856 9.82069C35.8788 9.71907 36.0081 9.65825 36.1451 9.65287C36.2822 9.64671 36.4169 9.69521 36.5177 9.78758L38.052 11.1902C38.1913 11.3141 38.2529 11.5043 38.2136 11.6867C38.1744 11.8692 38.0397 12.0162 37.8618 12.0716C37.6832 12.1271 37.4892 12.0824 37.353 11.9546L35.8187 10.552C35.7171 10.4596 35.6563 10.3303 35.6509 10.1933C35.6448 10.0555 35.6933 9.92153 35.7856 9.82069Z" fill="white"/>
<path d="M41.3923 8C41.6787 8 41.9104 8.23172 41.9104 8.51809V9.89914C41.9104 10.1847 41.6787 10.4172 41.3923 10.4172C41.1067 10.4172 40.875 10.1847 40.875 9.89914V8.51809C40.875 8.23172 41.1067 8 41.3923 8Z" fill="white"/>
</g>
<defs>
<clipPath id="clip0_2931_4015">
<rect width="14.789" height="14.789" fill="white" transform="translate(34 8)"/>
</clipPath>
</defs>
</svg>
