<svg width="30" height="35" viewBox="0 0 30 35" fill="none" xmlns="http://www.w3.org/2000/svg">
<g clip-path="url(#clip0_2438_2780)">
<path d="M20.4334 11.3465C20.2198 11.133 20.2198 10.7879 20.4327 10.5751L21.4304 9.57734L15.5784 9.57734L15.5784 15.4294L16.5761 14.4316C16.7889 14.2188 17.134 14.2188 17.3476 14.4323C17.5604 14.6452 17.5604 14.9902 17.3476 15.2031L15.8047 16.746C15.3783 17.1724 14.6881 17.1724 14.2617 16.746L12.7188 15.2031C12.506 14.9902 12.506 14.6452 12.7188 14.4323C12.9324 14.2188 13.2775 14.2188 13.4903 14.4316L14.488 15.4294L14.488 9.57734L8.63601 9.57734L9.63374 10.5751C9.84657 10.7879 9.84658 11.133 9.63303 11.3465C9.42019 11.5594 9.07512 11.5594 8.86228 11.3465L7.31938 9.80361C6.89299 9.37722 6.89299 8.68709 7.31938 8.2607L8.86228 6.7178C9.07512 6.50496 9.42019 6.50496 9.63303 6.7178C9.84657 6.93134 9.84657 7.27641 9.63374 7.48925L8.63601 8.48698L14.488 8.48698L14.488 2.63496L13.4903 3.63269C13.2775 3.84553 12.9324 3.84553 12.7188 3.63198C12.506 3.41914 12.506 3.07407 12.7188 2.86124L14.2617 1.31833C14.6881 0.891943 15.3783 0.891943 15.8047 1.31833L17.3476 2.86124C17.5604 3.07407 17.5604 3.41914 17.3476 3.63198C17.134 3.84553 16.7889 3.84553 16.5761 3.63269L15.5784 2.63496L15.5784 8.48698L21.4304 8.48698L20.4327 7.48925C20.2198 7.27641 20.2198 6.93134 20.4334 6.7178C20.6462 6.50496 20.9913 6.50496 21.2041 6.7178L22.747 8.2607C23.1734 8.68709 23.1734 9.37722 22.747 9.80361L21.2041 11.3465C20.9913 11.5594 20.6462 11.5594 20.4334 11.3465Z" fill="white"/>
<path opacity="0.5" d="M12.0987 24.5842L13.3301 20.7942L9.27767 19.4775L7.73351 24.2299C6.80151 27.0983 7.73471 30.2615 10.0988 32.2441C12.4622 34.2254 15.7899 34.6368 18.5315 33.2859L20.4701 32.3291L19.6936 25.5283L23.7311 23.5354L21.775 19.8117L12.0984 24.5851L12.0987 24.5842Z" fill="white"/>
</g>
<defs>
<clipPath id="clip0_2438_2780">
<rect width="16.731" height="33.074" fill="white" transform="translate(7 1)"/>
</clipPath>
</defs>
</svg>
