<svg xmlns="http://www.w3.org/2000/svg" width="133" height="126" fill="none"><path fill="#B79B79" d="M101.597 29.93a48.563 48.563 0 0 0-10.513-8.878 45.598 45.598 0 0 0-18.134 17.48 66.826 66.826 0 0 1 11.217 10.613 60.841 60.841 0 0 1 9.608 14.286 43.135 43.135 0 0 1 6.967-12.575 50.072 50.072 0 0 1 8.577-8.4 47.784 47.784 0 0 0-7.722-12.45m-1.484 15.669a67.485 67.485 0 0 0-6.665 9.029 61.065 61.065 0 0 0-8.174-9.382 2.766 2.766 0 0 1-.427-3.52 26.912 26.912 0 0 1 7.545-7.546 23.24 23.24 0 0 1 8.023 8.073 2.892 2.892 0 0 1-.402 3.42m25.402 8.603a43.411 43.411 0 0 0-10.463-9.382 43.42 43.42 0 0 0-10.211 9.281 38.022 38.022 0 0 0-6.263 11.469 55.575 55.575 0 0 1 18.939 21.052 38.616 38.616 0 0 1 5.03-10.967 39.303 39.303 0 0 1 9.659-10.06 41.374 41.374 0 0 0-6.691-11.368m-1.232 13.556a97.974 97.974 0 0 0-7.193 10.06 78.474 78.474 0 0 0-9.004-10.915 2.815 2.815 0 0 1-.503-3.32 25.954 25.954 0 0 1 8.274-8.979 25.724 25.724 0 0 1 8.803 9.784 3.068 3.068 0 0 1-.377 3.37Zm-46.58 36.168a47.747 47.747 0 0 0-7.923-5.961l-3.42-2.063-3.42 2.063a47.743 47.743 0 0 0-7.923 5.961 49.419 49.419 0 0 0-8.099 9.909 96.06 96.06 0 0 1 4.829 4.175 97.176 97.176 0 0 1 6.79 7.219.457.457 0 0 0 .227 0 .271.271 0 0 0 .112-.024.276.276 0 0 0 .165-.278 38.102 38.102 0 0 0-4.452-7.546 5.255 5.255 0 0 1-1.308-3.219 3.67 3.67 0 0 1 .705-1.911 25.74 25.74 0 0 1 2.842-3.748 25.163 25.163 0 0 1 9.532-6.59 25.166 25.166 0 0 1 9.507 6.59 24.223 24.223 0 0 1 2.867 3.748c.41.558.655 1.22.704 1.911a5.254 5.254 0 0 1-1.307 3.219 38.098 38.098 0 0 0-4.452 7.546.302.302 0 0 0 .277.402.302.302 0 0 0 .2 0 97.583 97.583 0 0 1 6.817-7.218 107.393 107.393 0 0 1 4.803-4.175 48.177 48.177 0 0 0-8.073-9.91m2.515-51.534a54.955 54.955 0 0 0-14.06-11.293A54.957 54.957 0 0 0 52 52.666a56.944 56.944 0 0 0-9.105 13.683c1.962 1.433 5.03 3.672 7.244 5.76a62.9 62.9 0 0 1 6.313 6.589A87.228 87.228 0 0 1 66.06 93.11a87.222 87.222 0 0 1 9.607-14.412 62.878 62.878 0 0 1 6.313-6.59c2.314-2.087 5.282-4.326 7.244-5.76a56.941 56.941 0 0 0-9.105-13.681ZM77.603 70.12a76.582 76.582 0 0 0-11.595 14.311 76.582 76.582 0 0 0-11.594-14.31 4.553 4.553 0 0 1-.83-5.635 36.947 36.947 0 0 1 12.424-13.455 36.946 36.946 0 0 1 12.425 13.456 4.603 4.603 0 0 1-.83 5.633ZM51.647 28.773a44.747 44.747 0 0 0-10.563-7.721A47.989 47.989 0 0 0 30.57 29.93a47.008 47.008 0 0 0-7.721 12.45 51.01 51.01 0 0 1 8.576 8.4 42.985 42.985 0 0 1 6.942 12.576A61.895 61.895 0 0 1 48 49.07a66.823 66.823 0 0 1 11.218-10.614 45.274 45.274 0 0 0-7.546-9.759M46.92 45.172a59.738 59.738 0 0 0-8.175 9.38 69.716 69.716 0 0 0-6.665-9.028 2.893 2.893 0 0 1-.402-3.421 23.038 23.038 0 0 1 8.023-8.074 26.51 26.51 0 0 1 7.545 7.546 2.716 2.716 0 0 1-.402 3.521M76.018 7.998a43.359 43.359 0 0 0-10.06-8.149 42.757 42.757 0 0 0-10.06 8.149 49.853 49.853 0 0 0-7.722 11.268 61.32 61.32 0 0 1 17.782 19.693A61.318 61.318 0 0 1 83.74 19.266a49.85 49.85 0 0 0-7.722-11.268Zm-3.697 17.103a43.159 43.159 0 0 0-6.363 7.872 43.16 43.16 0 0 0-6.363-7.872 2.515 2.515 0 0 1-.453-3.094 19.894 19.894 0 0 1 6.816-7.369 20.12 20.12 0 0 1 6.816 7.37 2.515 2.515 0 0 1-.453 3.093ZM27.477 54.075a43.41 43.41 0 0 0-10.212-9.28 43.914 43.914 0 0 0-10.488 9.38A41.828 41.828 0 0 0 .112 65.544a39.186 39.186 0 0 1 14.689 21.051 55.66 55.66 0 0 1 8.652-12.349 54.826 54.826 0 0 1 10.286-8.702 38.03 38.03 0 0 0-6.262-11.469Zm-3.27 12.802a80.028 80.028 0 0 0-8.979 10.916 102.071 102.071 0 0 0-7.193-10.061 3.068 3.068 0 0 1-.377-3.37 25.529 25.529 0 0 1 8.802-9.784 25.955 25.955 0 0 1 8.275 8.979 2.791 2.791 0 0 1-.528 3.32Zm35.79 26.534a52.564 52.564 0 0 0-18.234 18.336c0 .04-.016.078-.045.106a.148.148 0 0 1-.106.044.148.148 0 0 1-.107-.044.149.149 0 0 1-.044-.106 19.767 19.767 0 0 1 2.741-9.482 28.262 28.262 0 0 1 5.232-6.766 3.849 3.849 0 0 0 .603-4.678A31.918 31.918 0 0 0 38.04 78.899a42.505 42.505 0 0 0-7.042 6.062 36.316 36.316 0 0 0-2.943 3.747 3.797 3.797 0 0 0-.327 4.452 75.485 75.485 0 0 1 3.899 6.514c.6 1.19 1.08 2.437 1.433 3.722a.15.15 0 0 1-.22.066.15.15 0 0 1-.056-.066 89.14 89.14 0 0 0-8.275-9.23 87.195 87.195 0 0 0-5.03-4.477 49.523 49.523 0 0 1 18.46-20.247 97.153 97.153 0 0 1 8.653 6.69 60.36 60.36 0 0 1 5.86 6.112 65.519 65.519 0 0 1 7.545 11.167Zm52.818-3.672a107.883 107.883 0 0 0-5.031 4.477 92.328 92.328 0 0 0-8.3 9.231c0 .151-.301 0-.276 0a24.514 24.514 0 0 1 1.433-3.723c1.132-2.364 3.723-6.137 3.924-6.514a3.797 3.797 0 0 0-.327-4.452 36.322 36.322 0 0 0-2.943-3.747 42.487 42.487 0 0 0-7.042-6.062 32.068 32.068 0 0 0-12.022 11.922 3.898 3.898 0 0 0 .603 4.678 29.022 29.022 0 0 1 5.257 6.766 20.122 20.122 0 0 1 2.742 9.482.152.152 0 0 1-.258.107.153.153 0 0 1-.044-.107 54.188 54.188 0 0 0-9.407-11.695 52.79 52.79 0 0 0-8.853-6.64 65.676 65.676 0 0 1 7.545-11.168 60.371 60.371 0 0 1 5.81-6.06 93.364 93.364 0 0 1 8.652-6.691 49.517 49.517 0 0 1 10.362 8.526 50.306 50.306 0 0 1 8.099 11.72"/></svg>