<svg width="94" height="60" viewBox="0 0 94 60" fill="none" xmlns="http://www.w3.org/2000/svg">
<g clip-path="url(#clip0_67_2)">
<path d="M24.772 56.644H25.279V58.765H26.526V59.238H24.772V56.644ZM29.353 57.941C29.353 58.683 28.761 59.259 28.064 59.259C27.366 59.259 26.775 58.683 26.775 57.941C26.775 57.2 27.366 56.623 28.064 56.623C28.761 56.623 29.353 57.2 29.353 57.941ZM27.282 57.941C27.282 58.436 27.641 58.785 28.064 58.785C28.486 58.785 28.846 58.435 28.846 57.941C28.846 57.448 28.487 57.097 28.064 57.097C27.641 57.097 27.282 57.447 27.282 57.941ZM29.898 56.644H30.342L31.525 58.332V56.644H32.032V59.238H31.588L30.405 57.55V59.238H29.898V56.644ZM34.627 58.992C34.564 59.045 34.496 59.09 34.42 59.128C34.29 59.193 34.103 59.26 33.866 59.26C33.169 59.26 32.577 58.683 32.577 57.942C32.577 57.2 33.169 56.624 33.866 56.624C34.475 56.624 34.927 57.057 35.049 57.551H34.521C34.454 57.325 34.225 57.098 33.866 57.098C33.444 57.098 33.085 57.448 33.085 57.943C33.085 58.437 33.444 58.787 33.866 58.787C34.133 58.787 34.301 58.672 34.403 58.552C34.462 58.482 34.509 58.399 34.543 58.313H33.846V57.88H35.093V59.239H34.734L34.627 58.992ZM37.088 56.644H37.532L38.441 58.558L39.35 56.644H39.793V59.238H39.286V57.797L38.61 59.238H38.272L37.595 57.797V59.238H37.088V56.644ZM41.183 56.644H41.648L42.641 59.238H42.112L41.922 58.702H40.908L40.717 59.238H40.189L41.183 56.644ZM41.754 58.25L41.416 57.303L41.078 58.25H41.754ZM41.416 59.465C41.564 59.465 41.691 59.589 41.691 59.732C41.691 59.876 41.565 60 41.416 60C41.268 60 41.141 59.876 41.141 59.732C41.141 59.589 41.268 59.465 41.416 59.465ZM45.3 58.332C45.177 58.827 44.725 59.259 44.096 59.259C43.399 59.259 42.807 58.683 42.807 57.941C42.807 57.2 43.398 56.623 44.096 56.623C44.705 56.623 45.157 57.056 45.279 57.55H44.751C44.683 57.324 44.455 57.097 44.096 57.097C43.673 57.097 43.314 57.448 43.314 57.942C43.314 58.436 43.673 58.786 44.096 58.786C44.459 58.786 44.683 58.559 44.772 58.333L45.3 58.332ZM45.824 56.644H46.331V57.674H47.452V56.644H47.959V59.238H47.452V58.147H46.331V59.238H45.824V56.644ZM50.102 58.168H49.764V57.757H50.102V56.644H50.947C51.645 56.644 52.257 57.241 52.257 57.942C52.257 58.643 51.644 59.239 50.947 59.239H50.102V58.168ZM50.947 58.765C51.369 58.765 51.75 58.39 51.75 57.941C51.75 57.492 51.369 57.118 50.947 57.118H50.609V57.756H51.073V58.167H50.609V58.765H50.947ZM53.415 56.644H53.88L54.873 59.238H54.345L54.154 58.702H53.14L52.95 59.238H52.421L53.415 56.644ZM53.436 55.84H53.859L54.218 56.355H53.817L53.648 56.088L53.478 56.355H53.077L53.436 55.84ZM53.986 58.25L53.648 57.303L53.31 58.25H53.986ZM54.398 55.635H54.821L54.483 56.067H54.166L54.398 55.635ZM55.672 57.118H54.89V56.644H56.96V57.118H56.179V59.239H55.672V57.118ZM58.788 56.644H59.295V58.765H60.542V59.238H58.788V56.644ZM61.991 56.644H62.456L63.449 59.238H62.92L62.73 58.702H61.716L61.525 59.238H60.997L61.991 56.644ZM61.653 55.84H62.118L62.393 56.355H62.034L61.653 55.84ZM62.562 58.25L62.224 57.303L61.886 58.25H62.562ZM63.847 56.644H64.291L65.474 58.332V56.644H65.981V59.238H65.537L64.354 57.55V59.238H63.847V56.644ZM66.675 56.644H67.182V57.674H68.302V56.644H68.809V59.238H68.302V58.147H67.182V59.238H66.675V56.644Z" fill="white"/>
<path d="M77.875 57.883L73.576 58.703L72.477 57.883L73.576 57.062L77.875 57.883ZM15.706 57.883L20.004 58.702L21.103 57.883L20.004 57.063L15.706 57.883ZM57.908 9.408C56.684 8.004 55.293 7.044 54.607 6.615C53.393 7.261 52.278 8.078 51.296 9.042C50.169 10.148 49.412 11.257 48.918 12.11C50.197 12.981 51.408 14.293 52.436 15.447C53.976 17.174 54.918 18.805 55.458 19.936C55.861 18.847 56.474 17.399 57.639 15.958C58.629 14.738 59.607 13.873 60.33 13.317C59.884 12.27 59.127 10.807 57.908 9.408ZM57.442 14.336C56.649 15.194 55.997 16.181 55.351 17.174C54.652 16.13 53.72 15.12 52.787 14.22C52.481 13.923 52.423 13.468 52.656 13.116C53.276 12.182 54.09 11.343 55.052 10.718C56.113 11.352 56.974 12.253 57.572 13.257C57.776 13.603 57.713 14.044 57.442 14.336ZM65.415 17.035C64.241 15.607 62.998 14.615 62.13 14.086C61.282 14.611 60.069 15.598 58.927 17.005C57.84 18.349 57.3 19.665 56.958 20.612C58.14 21.383 59.224 22.3 60.188 23.344C61.264 24.505 62.175 25.811 62.9 27.225C63.158 26.314 63.621 25.076 64.479 23.778C65.518 22.201 66.706 21.189 67.513 20.605C67.147 19.678 66.513 18.37 65.415 17.035ZM65.022 21.297C64.212 22.273 63.474 23.352 62.766 24.461C61.901 23.182 61.009 22.119 59.948 21.027C59.669 20.741 59.605 20.332 59.787 19.985C60.348 18.907 61.365 17.834 62.384 17.167C63.6 17.975 64.537 19.032 65.145 20.235C65.319 20.579 65.274 20.998 65.022 21.297ZM50.351 32.716C49.585 32.003 48.75 31.371 47.864 30.841L46.791 30.197L45.717 30.841C44.831 31.371 43.995 32.003 43.229 32.716C41.929 33.927 41.045 35.258 40.694 35.828C41.21 36.248 41.716 36.691 42.204 37.141C42.977 37.857 43.637 38.617 44.34 39.408C44.364 39.436 44.404 39.446 44.439 39.433C44.474 39.42 44.498 39.387 44.498 39.349C44.498 39.337 44.495 39.326 44.491 39.314C44.129 38.447 43.561 37.591 43.099 36.962C42.892 36.681 42.661 36.317 42.685 35.952C42.693 35.811 42.718 35.647 42.907 35.344C43.168 34.927 43.467 34.533 43.802 34.174C45.29 32.58 46.789 32.098 46.789 32.098C46.789 32.098 48.288 32.58 49.776 34.174C50.112 34.533 50.412 34.926 50.671 35.344C50.86 35.647 50.885 35.811 50.894 35.952C50.918 36.317 50.686 36.681 50.479 36.962C50.017 37.59 49.45 38.447 49.087 39.314C49.062 39.373 49.107 39.438 49.171 39.438C49.197 39.438 49.221 39.428 49.238 39.408C49.941 38.617 50.601 37.856 51.374 37.141C51.862 36.691 52.369 36.248 52.884 35.828C52.533 35.257 51.649 33.926 50.349 32.716H50.351ZM51.2 16.556C49.613 14.773 47.956 13.663 46.79 13.006C45.624 13.663 43.968 14.773 42.38 16.556C40.969 18.139 40.051 19.704 39.523 20.857C40.141 21.304 41.073 22.005 41.793 22.664C42.474 23.285 43.173 23.988 43.774 24.731C45.396 26.738 46.335 28.373 46.791 29.261C47.247 28.374 48.184 26.738 49.806 24.731C50.407 23.988 51.106 23.285 51.787 22.664C52.508 22.005 53.438 21.304 54.058 20.857C53.53 19.704 52.611 18.138 51.2 16.556ZM50.426 22.04C49.032 23.399 47.864 24.839 46.79 26.535C45.717 24.839 44.548 23.399 43.154 22.04C42.651 21.569 42.572 20.862 42.895 20.27C43.765 18.674 45.141 17.055 46.791 16.043C48.441 17.055 49.817 18.674 50.687 20.27C51.008 20.861 50.93 21.568 50.426 22.04ZM42.283 9.042C41.078 7.859 39.874 7.094 38.972 6.615C38.288 7.044 36.896 8.004 35.672 9.408C34.454 10.807 33.694 12.27 33.249 13.317C33.973 13.873 34.95 14.738 35.94 15.958C37.106 17.398 37.72 18.847 38.122 19.936C38.661 18.806 39.604 17.174 41.143 15.447C42.172 14.293 43.383 12.982 44.662 12.11C44.168 11.257 43.411 10.148 42.283 9.042ZM40.792 14.22C39.86 15.12 38.927 16.131 38.228 17.174C37.583 16.18 36.931 15.193 36.137 14.336C35.866 14.044 35.803 13.603 36.008 13.257C36.606 12.253 37.467 11.352 38.528 10.718C39.49 11.343 40.303 12.182 40.924 13.116C41.157 13.468 41.099 13.923 40.792 14.22ZM49.946 2.562C48.85 1.348 47.701 0.546 46.79 0C45.879 0.546 44.73 1.348 43.634 2.562C42.46 3.863 41.651 5.196 41.21 6.102C42.265 6.853 43.242 7.708 44.125 8.656C45.342 9.962 46.198 11.247 46.79 12.292C47.382 11.247 48.237 9.961 49.454 8.656C50.338 7.708 51.315 6.853 52.37 6.102C51.929 5.196 51.119 3.864 49.946 2.562ZM48.786 7.941C48.021 8.686 47.379 9.478 46.79 10.409C46.2 9.478 45.559 8.686 44.794 7.941C44.517 7.681 44.474 7.294 44.65 6.97C45.129 6.093 45.883 5.203 46.789 4.647C47.696 5.203 48.45 6.093 48.928 6.97C49.105 7.294 49.061 7.681 48.786 7.941ZM34.653 17.006C33.512 15.598 32.297 14.612 31.45 14.087C30.581 14.616 29.338 15.607 28.164 17.036C27.067 18.37 26.432 19.679 26.067 20.606C26.873 21.19 28.061 22.202 29.1 23.78C29.958 25.077 30.421 26.316 30.68 27.226C31.405 25.812 32.316 24.507 33.392 23.345C34.352 22.305 35.436 21.387 36.621 20.613C36.28 19.666 35.74 18.349 34.653 17.006ZM33.633 21.026C32.571 22.119 31.679 23.182 30.813 24.46C30.105 23.352 29.367 22.273 28.557 21.296C28.306 20.997 28.261 20.578 28.435 20.234C29.042 19.031 29.979 17.974 31.196 17.166C32.216 17.832 33.232 18.906 33.792 19.984C33.975 20.331 33.911 20.74 33.633 21.026ZM44.829 29.355C43.841 29.947 42.908 30.651 42.053 31.447C40.435 32.955 39.407 34.601 39.103 35.119C39.077 35.163 39.009 35.144 39.01 35.093C39.029 34.225 39.186 33.464 39.871 32.117C40.268 31.338 40.867 30.659 41.515 29.991C41.905 29.589 41.981 28.997 41.705 28.518C40.2 25.908 37.938 24.772 37.938 24.772C37.938 24.772 36.72 25.582 35.73 26.677C35.356 27.089 35.047 27.5 34.801 27.856C34.477 28.324 34.42 28.752 34.7 29.256C34.766 29.374 35.58 30.563 35.929 31.301C36.121 31.706 36.273 32.088 36.378 32.47C36.392 32.523 36.325 32.556 36.29 32.514C35.433 31.422 34.56 30.448 33.691 29.611C33.185 29.124 32.661 28.655 32.12 28.206C32.785 26.863 33.64 25.623 34.658 24.523C35.62 23.483 36.716 22.58 37.916 21.839C37.916 21.839 39.566 22.974 40.629 23.945C41.255 24.517 41.886 25.176 42.453 25.849C43.354 26.922 44.153 28.101 44.829 29.355ZM61.46 28.205C60.912 28.659 60.385 29.132 59.889 29.61C59.019 30.446 58.146 31.421 57.288 32.512C57.254 32.554 57.186 32.521 57.201 32.469C57.306 32.087 57.458 31.705 57.649 31.3C57.999 30.561 58.812 29.372 58.878 29.255C59.158 28.75 59.1 28.323 58.777 27.855C58.531 27.499 58.222 27.087 57.848 26.675C56.857 25.58 55.64 24.772 55.64 24.77C55.64 24.771 53.378 25.906 51.873 28.516C51.596 28.996 51.673 29.587 52.062 29.99C52.711 30.657 53.31 31.336 53.707 32.116C54.393 33.463 54.549 34.224 54.567 35.092C54.568 35.142 54.501 35.162 54.475 35.118C54.171 34.6 53.143 32.954 51.524 31.446C50.67 30.65 49.736 29.945 48.748 29.353C49.424 28.098 50.223 26.92 51.125 25.847C51.692 25.174 52.322 24.515 52.948 23.943C54.011 22.972 55.662 21.837 55.662 21.837C56.865 22.58 57.96 23.483 58.92 24.521C59.937 25.62 60.79 26.859 61.458 28.204L61.46 28.205Z" fill="white"/>
<path d="M0.299 49.922V41.804C0.299 40.589 0 39.726 0 39.726H5.38C8.58 39.726 11.164 41.364 11.164 45.872C11.164 50.381 8.58 52.018 5.38 52.018H0C0 52.018 0.299 51.154 0.299 49.922ZM8.773 45.872C8.773 41.84 6.856 40.361 4.5 40.361H2.707V51.367L4.5 51.385C6.856 51.385 8.773 49.905 8.773 45.872Z" fill="white"/>
<path d="M26.136 50.491L25.701 49.453H22.013C21.398 51.389 22.026 52.018 22.026 52.018H20.375L24.165 43.065H24.882L28.673 52.018H26.56C26.56 52.018 26.52 51.389 26.136 50.491ZM25.496 48.991L23.831 45.053L22.166 48.991H25.496Z" fill="white"/>
<path d="M28.647 47.542C28.647 44.194 30.529 42.975 32.86 42.975C33.948 42.975 35.446 43.245 36.202 43.86V45.784C36.202 45.784 35.113 43.45 32.86 43.45C31.503 43.45 30.388 44.541 30.388 47.542C30.388 50.261 32.335 52.031 34.46 51.325V47.58C33.192 47.657 32.347 48.016 32.347 48.016V47.105H36.432C36.432 47.105 36.202 47.734 36.202 48.632V50.684C35.242 51.941 33.718 52.108 32.86 52.108C30.529 52.108 28.647 50.889 28.647 47.542Z" fill="white"/>
<path d="M37.29 47.542C37.29 44.194 39.172 42.975 41.503 42.975C43.834 42.975 45.716 44.194 45.716 47.542C45.716 50.89 43.834 52.108 41.503 52.108C39.172 52.108 37.29 50.889 37.29 47.542ZM43.974 47.542C43.974 44.541 42.873 43.45 41.503 43.45C40.133 43.45 39.031 44.541 39.031 47.542C39.031 50.543 40.146 51.634 41.503 51.634C42.86 51.634 43.974 50.543 43.974 47.542Z" fill="white"/>
<path d="M46.65 43.066H49.071L54.064 49.543V46.298C54.064 44.387 53.027 43.066 53.027 43.066H54.525V52.018H53.757L47.341 43.668V47.182C47.341 50.03 48.584 52.018 48.584 52.018H46.868V44.579C46.868 43.694 46.65 43.066 46.65 43.066Z" fill="white"/>
<path d="M59.26 49.922V41.804C59.26 40.572 58.961 39.726 58.961 39.726H67.681V42.016C67.681 42.016 66.82 40.361 63.216 40.361H61.668V45.045H65.413V46.295C65.413 46.295 64.006 45.696 61.985 45.696H61.668V51.366H63.743C67.347 51.366 68.208 49.729 68.208 49.729V52.018H58.961C58.961 52.018 59.259 51.155 59.259 49.923L59.26 49.922Z" fill="white"/>
<path d="M69.367 50.491V44.579C69.367 43.694 69.149 43.066 69.149 43.066H73.067C75.397 43.066 77.28 44.259 77.28 47.542C77.28 50.825 75.398 52.018 73.067 52.018H69.149C69.149 52.018 69.367 51.389 69.367 50.491ZM75.538 47.542C75.538 44.605 74.143 43.528 72.427 43.528H71.121V51.544L72.427 51.557C74.143 51.557 75.538 50.478 75.538 47.542Z" fill="white"/>
<path d="M78.432 50.491V44.579C78.432 43.681 78.215 43.066 78.215 43.066H84.566V44.733C84.566 44.733 83.938 43.528 81.313 43.528H80.187V46.939H82.914V47.849C82.914 47.849 81.889 47.414 80.417 47.414H80.187V51.544H81.697C84.322 51.544 84.949 50.351 84.949 50.351V52.018H78.214C78.214 52.018 78.432 51.389 78.432 50.491Z" fill="white"/>
<path d="M85.705 43.066H88.126L93.12 49.543V46.298C93.12 44.387 92.082 43.066 92.082 43.066H93.58V52.018H92.812L86.396 43.668V47.182C86.396 50.03 87.639 52.018 87.639 52.018H85.923V44.579C85.923 43.694 85.705 43.066 85.705 43.066Z" fill="white"/>
<path d="M20.047 51.542C18.873 51.5 18.251 48.713 16.053 47.567H16.373C17.756 47.567 18.882 46.977 18.882 45.323C18.882 43.668 17.756 43.066 16.373 43.066H12.071C12.071 43.066 12.289 43.694 12.289 44.579V50.491C12.289 51.389 12.071 52.018 12.071 52.018H14.261C14.261 52.018 14.043 51.389 14.043 50.491V47.567C15.717 47.567 15.436 51.868 19.843 52.014L20.047 51.542ZM14.042 47.105V43.527H15.861C16.565 43.527 17.141 44.002 17.141 45.323C17.141 46.644 16.565 47.105 15.861 47.105H14.042Z" fill="white"/>
</g>
<defs>
<clipPath id="clip0_67_2">
<rect width="93.58" height="60" fill="white"/>
</clipPath>
</defs>
</svg>
