<svg xmlns="http://www.w3.org/2000/svg" width="321.037" height="200" fill="none" overflow="visible"><g><path d="M 82.55 188.812 L 84.24 188.812 L 84.24 195.883 L 88.395 195.883 L 88.395 197.461 L 82.552 197.461 L 82.552 188.812 Z M 97.816 193.138 C 97.816 195.609 95.846 197.531 93.521 197.531 C 91.197 197.531 89.226 195.609 89.226 193.138 C 89.226 190.666 91.197 188.745 93.521 188.745 C 95.846 188.745 97.816 190.666 97.816 193.138 Z M 90.917 193.138 C 90.917 194.785 92.113 195.951 93.521 195.951 C 94.93 195.951 96.128 194.783 96.128 193.138 C 96.128 191.492 94.932 190.322 93.521 190.322 C 92.111 190.322 90.917 191.49 90.917 193.138 Z M 99.634 188.812 L 101.112 188.812 L 105.055 194.441 L 105.055 188.812 L 106.745 188.812 L 106.745 197.461 L 105.267 197.461 L 101.324 191.832 L 101.324 197.461 L 99.634 197.461 Z M 115.394 196.639 C 115.185 196.816 114.957 196.968 114.703 197.093 C 114.268 197.312 113.647 197.533 112.858 197.533 C 110.535 197.533 108.563 195.611 108.563 193.14 C 108.563 190.668 110.533 188.747 112.858 188.747 C 114.887 188.747 116.394 190.188 116.801 191.836 L 115.04 191.836 C 114.815 191.082 114.054 190.327 112.858 190.327 C 111.449 190.327 110.253 191.494 110.253 193.142 C 110.253 194.79 111.449 195.955 112.858 195.955 C 113.746 195.955 114.308 195.572 114.647 195.173 C 114.843 194.939 114.999 194.665 115.112 194.376 L 112.79 194.376 L 112.79 192.934 L 116.945 192.934 L 116.945 197.465 L 115.749 197.465 L 115.397 196.641 Z M 123.595 188.812 L 125.074 188.812 L 128.102 195.195 L 131.131 188.812 L 132.61 188.812 L 132.61 197.461 L 130.919 197.461 L 130.919 192.656 L 128.664 197.461 L 127.538 197.461 L 125.284 192.656 L 125.284 197.461 L 123.593 197.461 L 123.593 188.812 Z M 137.241 188.812 L 138.79 188.812 L 142.098 197.461 L 140.338 197.461 L 139.704 195.675 L 136.323 195.675 L 135.689 197.461 L 133.928 197.461 L 137.237 188.812 Z M 139.144 194.167 L 138.018 191.01 L 136.891 194.167 L 139.146 194.167 Z M 138.018 198.216 C 138.51 198.216 138.934 198.628 138.934 199.108 C 138.934 199.588 138.512 200 138.018 200 C 137.523 200 137.101 199.588 137.101 199.108 C 137.101 198.628 137.523 198.216 138.018 198.216 Z M 150.96 194.441 C 150.551 196.089 149.044 197.531 146.947 197.531 C 144.624 197.531 142.652 195.609 142.652 193.138 C 142.652 190.666 144.622 188.745 146.947 188.745 C 148.976 188.745 150.483 190.186 150.89 191.834 L 149.129 191.834 C 148.904 191.08 148.143 190.324 146.947 190.324 C 145.538 190.324 144.342 191.492 144.342 193.14 C 144.342 194.788 145.538 195.953 146.947 195.953 C 148.158 195.953 148.904 195.197 149.201 194.444 L 150.962 194.444 Z M 152.707 188.812 L 154.397 188.812 L 154.397 192.246 L 158.13 192.246 L 158.13 188.812 L 159.821 188.812 L 159.821 197.461 L 158.13 197.461 L 158.13 193.823 L 154.397 193.823 L 154.397 197.461 L 152.707 197.461 Z M 166.963 193.894 L 165.837 193.894 L 165.837 192.522 L 166.963 192.522 L 166.963 188.815 L 169.78 188.815 C 172.104 188.815 174.145 190.804 174.145 193.14 C 174.145 195.475 172.102 197.465 169.78 197.465 L 166.963 197.465 L 166.963 193.896 Z M 169.778 195.883 C 171.186 195.883 172.454 194.634 172.454 193.138 C 172.454 191.641 171.186 190.392 169.778 190.392 L 168.651 190.392 L 168.651 192.52 L 170.2 192.52 L 170.2 193.891 L 168.651 193.891 L 168.651 195.883 Z M 178.005 188.812 L 179.553 188.812 L 182.862 197.461 L 181.101 197.461 L 180.467 195.675 L 177.086 195.675 L 176.452 197.461 L 174.691 197.461 L 178 188.812 Z M 178.075 186.135 L 179.483 186.135 L 180.679 187.851 L 179.343 187.851 L 178.779 186.959 L 178.214 187.851 L 176.876 187.851 L 178.072 186.135 Z M 179.907 194.167 L 178.781 191.01 L 177.655 194.167 L 179.909 194.167 Z M 181.28 185.449 L 182.689 185.449 L 181.563 186.891 L 180.506 186.891 Z M 185.525 190.392 L 182.918 190.392 L 182.918 188.815 L 189.818 188.815 L 189.818 190.392 L 187.213 190.392 L 187.213 197.463 L 185.523 197.463 L 185.523 190.392 Z M 195.908 188.812 L 197.599 188.812 L 197.599 195.883 L 201.754 195.883 L 201.754 197.461 L 195.908 197.461 Z M 206.583 188.812 L 208.131 188.812 L 211.44 197.461 L 209.679 197.461 L 209.045 195.675 L 205.664 195.675 L 205.03 197.461 L 203.269 197.461 L 206.578 188.812 Z M 205.456 186.135 L 207.005 186.135 L 207.921 187.851 L 206.725 187.851 Z M 208.485 194.167 L 207.359 191.01 L 206.233 194.167 L 208.487 194.167 Z M 212.767 188.812 L 214.245 188.812 L 218.188 194.441 L 218.188 188.812 L 219.879 188.812 L 219.879 197.461 L 218.4 197.461 L 214.457 191.832 L 214.457 197.461 L 212.767 197.461 Z M 222.19 188.812 L 223.881 188.812 L 223.881 192.246 L 227.614 192.246 L 227.614 188.812 L 229.304 188.812 L 229.304 197.461 L 227.614 197.461 L 227.614 193.823 L 223.881 193.823 L 223.881 197.461 L 222.19 197.461 Z" fill="rgb(255, 255, 255)"></path><path d="M 259.516 192.943 L 245.19 195.677 L 241.527 192.943 L 245.19 190.208 Z M 52.338 192.943 L 66.662 195.675 L 70.325 192.943 L 66.662 190.21 Z M 192.976 31.361 C 188.895 26.678 184.261 23.482 181.976 22.051 C 177.93 24.203 174.215 26.928 170.943 30.14 C 167.186 33.828 164.662 37.524 163.016 40.366 C 167.28 43.271 171.315 47.642 174.742 51.49 C 179.872 57.246 183.012 62.684 184.812 66.455 C 186.153 62.824 188.195 57.995 192.079 53.195 C 195.377 49.126 198.638 46.242 201.048 44.391 C 199.561 40.901 197.035 36.023 192.974 31.361 Z M 191.423 47.787 C 188.779 50.646 186.608 53.935 184.456 57.246 C 182.127 53.766 179.019 50.399 175.912 47.399 C 174.89 46.409 174.696 44.895 175.474 43.72 C 177.541 40.607 180.253 37.811 183.459 35.725 C 186.995 37.84 189.862 40.844 191.856 44.192 C 192.536 45.342 192.326 46.812 191.423 47.787 Z M 217.994 56.784 C 214.081 52.022 209.939 48.718 207.044 46.954 C 204.221 48.703 200.177 51.992 196.372 56.685 C 192.748 61.163 190.949 65.55 189.811 68.705 C 193.748 71.275 197.363 74.334 200.573 77.813 C 204.159 81.685 207.195 86.036 209.611 90.749 C 210.471 87.713 212.015 83.587 214.873 79.262 C 218.337 74.003 222.293 70.629 224.983 68.683 C 223.765 65.594 221.652 61.229 217.991 56.781 Z M 216.684 70.99 C 213.985 74.242 211.523 77.84 209.165 81.536 C 206.281 77.274 203.309 73.731 199.773 70.09 C 198.845 69.137 198.631 67.774 199.239 66.617 C 201.107 63.024 204.496 59.446 207.89 57.224 C 211.945 59.917 215.068 63.44 217.093 67.45 C 217.672 68.598 217.523 69.996 216.684 70.993 Z M 167.792 109.053 C 165.24 106.676 162.456 104.571 159.506 102.802 L 155.928 100.655 L 152.35 102.802 C 149.398 104.571 146.612 106.676 144.06 109.053 C 139.728 113.089 136.782 117.526 135.612 119.426 C 137.331 120.828 139.017 122.305 140.644 123.804 C 143.218 126.19 145.418 128.725 147.76 131.358 C 147.842 131.453 147.974 131.486 148.091 131.443 C 148.208 131.4 148.286 131.289 148.287 131.163 C 148.287 131.124 148.278 131.087 148.263 131.047 C 147.058 128.157 145.164 125.302 143.627 123.206 C 142.936 122.27 142.166 121.058 142.245 119.84 C 142.273 119.369 142.356 118.823 142.986 117.813 C 143.854 116.422 144.852 115.11 145.969 113.913 C 150.927 108.6 155.924 106.992 155.924 106.992 C 155.924 106.992 160.919 108.6 165.876 113.913 C 166.996 115.11 167.995 116.42 168.859 117.813 C 169.489 118.823 169.572 119.369 169.6 119.84 C 169.681 121.058 168.909 122.27 168.218 123.206 C 166.679 125.3 164.789 128.157 163.58 131.047 C 163.497 131.245 163.646 131.461 163.86 131.461 C 163.945 131.461 164.028 131.426 164.083 131.358 C 166.425 128.723 168.625 126.188 171.201 123.804 C 172.828 122.303 174.516 120.828 176.233 119.426 C 175.065 117.524 172.117 113.087 167.785 109.053 Z M 170.622 55.186 C 165.332 49.244 159.81 45.543 155.926 43.352 C 152.04 45.543 146.52 49.244 141.228 55.186 C 136.528 60.462 133.467 65.681 131.709 69.522 C 133.769 71.012 136.874 73.35 139.273 75.546 C 141.543 77.618 143.872 79.961 145.875 82.436 C 151.281 89.126 154.408 94.577 155.928 97.537 C 157.448 94.579 160.571 89.126 165.977 82.436 C 167.98 79.958 170.309 77.618 172.579 75.546 C 174.98 73.35 178.081 71.012 180.145 69.522 C 178.385 65.681 175.326 60.46 170.624 55.186 Z M 168.041 73.466 C 163.398 77.997 159.504 82.796 155.926 88.451 C 152.348 82.796 148.453 77.997 143.808 73.466 C 142.131 71.895 141.869 69.54 142.945 67.568 C 145.844 62.246 150.43 56.849 155.928 53.475 C 161.426 56.849 166.012 62.246 168.912 67.568 C 169.983 69.538 169.721 71.893 168.043 73.466 Z M 140.907 30.14 C 136.889 26.196 132.879 23.648 129.874 22.051 C 127.593 23.482 122.954 26.678 118.876 31.361 C 114.815 36.023 112.285 40.901 110.8 44.391 C 113.212 46.242 116.47 49.126 119.768 53.195 C 123.654 57.993 125.699 62.824 127.04 66.455 C 128.837 62.686 131.98 57.246 137.108 51.49 C 140.537 47.642 144.572 43.273 148.834 40.366 C 147.189 37.524 144.666 33.826 140.907 30.14 Z M 135.938 47.399 C 132.83 50.399 129.723 53.769 127.394 57.246 C 125.244 53.933 123.07 50.644 120.426 47.787 C 119.523 46.812 119.313 45.344 119.996 44.192 C 121.988 40.844 124.857 37.84 128.393 35.725 C 131.597 37.811 134.307 40.607 136.378 43.72 C 137.154 44.895 136.961 46.409 135.938 47.399 Z M 166.443 8.541 C 162.791 4.492 158.961 1.821 155.926 0 C 152.888 1.821 149.061 4.492 145.409 8.541 C 141.497 12.877 138.798 17.32 137.329 20.34 C 140.846 22.842 144.101 25.695 147.045 28.854 C 151.1 33.206 153.951 37.489 155.926 40.973 C 157.898 37.489 160.748 33.203 164.805 28.854 C 167.749 25.695 171.004 22.842 174.521 20.34 C 173.051 17.32 170.355 12.879 166.445 8.541 Z M 162.578 26.47 C 160.026 28.955 157.89 31.593 155.926 34.695 C 153.96 31.593 151.823 28.955 149.273 26.47 C 148.351 25.605 148.206 24.314 148.795 23.232 C 150.389 20.309 152.901 17.344 155.924 15.491 C 158.944 17.344 161.457 20.309 163.051 23.232 C 163.639 24.314 163.495 25.605 162.576 26.47 Z M 115.48 56.687 C 111.677 51.994 107.629 48.705 104.806 46.957 C 101.91 48.72 97.766 52.025 93.856 56.786 C 90.2 61.234 88.083 65.598 86.867 68.688 C 89.554 70.633 93.51 74.007 96.974 79.266 C 99.833 83.591 101.377 87.719 102.24 90.754 C 104.655 86.041 107.69 81.689 111.277 77.818 C 114.475 74.349 118.09 71.289 122.038 68.709 C 120.901 65.554 119.101 61.168 115.48 56.689 Z M 112.079 70.088 C 108.541 73.729 105.569 77.272 102.684 81.534 C 100.325 77.84 97.865 74.242 95.166 70.988 C 94.328 69.991 94.177 68.593 94.757 67.445 C 96.782 63.436 99.903 59.912 103.959 57.22 C 107.358 59.441 110.743 63.021 112.611 66.613 C 113.219 67.77 113.006 69.135 112.079 70.085 Z M 149.392 97.848 C 146.098 99.825 142.988 102.171 140.141 104.825 C 134.748 109.851 131.324 115.335 130.309 117.064 C 130.224 117.211 129.996 117.145 130.001 116.976 C 130.062 114.084 130.587 111.547 132.868 107.057 C 134.191 104.459 136.187 102.195 138.348 99.972 C 139.647 98.628 139.901 96.656 138.98 95.059 C 133.963 86.358 126.427 82.575 126.427 82.572 C 126.427 82.575 122.368 85.272 119.068 88.922 C 117.822 90.296 116.792 91.667 115.974 92.853 C 114.894 94.413 114.703 95.839 115.637 97.52 C 115.856 97.912 118.568 101.876 119.731 104.338 C 120.372 105.688 120.877 106.961 121.229 108.234 C 121.275 108.409 121.05 108.519 120.936 108.379 C 118.078 104.741 115.169 101.492 112.274 98.703 C 110.586 97.079 108.84 95.517 107.038 94.021 C 109.256 89.544 112.104 85.409 115.495 81.744 C 118.703 78.276 122.353 75.265 126.353 72.796 C 126.353 72.796 131.853 76.58 135.393 79.818 C 137.482 81.724 139.583 83.92 141.473 86.163 C 144.475 89.739 147.139 93.67 149.389 97.851 Z M 204.811 94.016 C 202.987 95.53 201.229 97.106 199.576 98.699 C 196.678 101.488 193.77 104.737 190.909 108.374 C 190.798 108.514 190.57 108.405 190.618 108.23 C 190.968 106.957 191.476 105.684 192.112 104.334 C 193.278 101.871 195.989 97.908 196.208 97.515 C 197.142 95.835 196.949 94.411 195.871 92.848 C 195.051 91.663 194.021 90.291 192.777 88.918 C 189.472 85.267 185.418 82.572 185.418 82.568 C 185.418 82.57 177.88 86.354 172.863 95.055 C 171.943 96.652 172.198 98.624 173.495 99.967 C 175.656 102.189 177.655 104.454 178.976 107.053 C 181.261 111.543 181.781 114.08 181.843 116.972 C 181.845 117.141 181.622 117.206 181.534 117.06 C 180.524 115.333 177.097 109.847 171.702 104.82 C 168.855 102.167 165.743 99.818 162.452 97.844 C 164.702 93.661 167.365 89.733 170.37 86.157 C 172.26 83.913 174.361 81.718 176.447 79.812 C 179.988 76.573 185.492 72.789 185.492 72.789 C 189.499 75.266 193.151 78.276 196.348 81.738 C 199.738 85.399 202.581 89.529 204.807 94.014 Z" fill="rgb(192,157,115)"></path><path d="M 0.995 166.407 L 0.995 139.347 C 0.995 135.296 0 132.421 0 132.421 L 17.928 132.421 C 28.591 132.421 37.203 137.879 37.203 152.908 C 37.203 167.936 28.591 173.394 17.928 173.394 L 0 173.394 C 0 173.394 0.995 170.517 0.995 166.409 Z M 29.234 152.908 C 29.234 139.465 22.848 134.536 14.998 134.536 L 9.021 134.536 L 9.021 171.223 L 14.998 171.282 C 22.848 171.282 29.234 166.352 29.234 152.91 Z" fill="rgb(255, 255, 255)"></path><path d="M 87.099 168.304 L 85.649 164.842 L 73.359 164.842 C 71.309 171.297 73.402 173.392 73.402 173.392 L 67.898 173.392 L 80.529 143.55 L 82.919 143.55 L 95.551 173.392 L 88.509 173.392 C 88.509 173.392 88.38 171.297 87.101 168.304 Z M 84.964 163.302 L 79.416 150.177 L 73.868 163.302 L 84.962 163.302 Z" fill="rgb(255, 255, 255)"></path><path d="M 95.463 158.473 C 95.463 147.314 101.735 143.252 109.503 143.252 C 113.131 143.252 118.124 144.15 120.641 146.201 L 120.641 152.614 C 120.641 152.614 117.013 144.833 109.503 144.833 C 104.981 144.833 101.267 148.468 101.267 158.473 C 101.267 167.537 107.754 173.436 114.837 171.085 L 114.837 158.6 C 110.612 158.856 107.795 160.053 107.795 160.053 L 107.795 157.018 L 121.408 157.018 C 121.408 157.018 120.641 159.113 120.641 162.106 L 120.641 168.946 C 117.441 173.135 112.364 173.692 109.503 173.692 C 101.738 173.692 95.463 169.63 95.463 158.473 Z" fill="rgb(255, 255, 255)"></path><path d="M 124.267 158.473 C 124.267 147.314 130.539 143.252 138.306 143.252 C 146.074 143.252 152.346 147.314 152.346 158.473 C 152.346 169.632 146.074 173.692 138.306 173.692 C 130.539 173.692 124.267 169.63 124.267 158.473 Z M 146.542 158.473 C 146.542 148.468 142.872 144.833 138.306 144.833 C 133.74 144.833 130.071 148.468 130.071 158.473 C 130.071 168.477 133.784 172.112 138.306 172.112 C 142.829 172.112 146.542 168.477 146.542 158.473 Z" fill="rgb(255, 255, 255)"></path><path d="M 155.46 143.552 L 163.525 143.552 L 180.167 165.142 L 180.167 154.325 C 180.167 147.956 176.71 143.552 176.71 143.552 L 181.703 143.552 L 181.703 173.394 L 179.142 173.394 L 157.763 145.561 L 157.763 157.274 C 157.763 166.766 161.903 173.392 161.903 173.392 L 156.184 173.392 L 156.184 148.596 C 156.184 145.646 155.458 143.552 155.458 143.552 Z" fill="rgb(255, 255, 255)"></path><path d="M 197.481 166.407 L 197.481 139.347 C 197.481 135.239 196.486 132.421 196.486 132.421 L 225.545 132.421 L 225.545 140.053 C 225.545 140.053 222.674 134.535 210.663 134.535 L 205.507 134.535 L 205.507 150.149 L 217.985 150.149 L 217.985 154.316 C 217.985 154.316 213.298 152.32 206.561 152.32 L 205.507 152.32 L 205.507 171.22 L 212.419 171.22 C 224.43 171.22 227.301 165.762 227.301 165.762 L 227.301 173.394 L 196.484 173.394 C 196.484 173.394 197.479 170.517 197.479 166.409 Z" fill="rgb(255, 255, 255)"></path><path d="M 231.161 168.304 L 231.161 148.596 C 231.161 145.646 230.435 143.552 230.435 143.552 L 243.492 143.552 C 251.258 143.552 257.532 147.529 257.532 158.473 C 257.532 169.417 251.26 173.394 243.492 173.394 L 230.435 173.394 C 230.435 173.394 231.161 171.299 231.161 168.306 Z M 251.728 158.473 C 251.728 148.683 247.077 145.092 241.358 145.092 L 237.006 145.092 L 237.006 171.812 L 241.358 171.856 C 247.077 171.856 251.728 168.265 251.728 158.475 Z" fill="rgb(255, 255, 255)"></path><path d="M 261.372 168.304 L 261.372 148.596 C 261.372 145.603 260.646 143.552 260.646 143.552 L 281.811 143.552 L 281.811 149.11 C 281.811 149.11 279.72 145.092 270.973 145.092 L 267.218 145.092 L 267.218 156.464 L 276.306 156.464 L 276.306 159.498 C 276.306 159.498 272.893 158.046 267.985 158.046 L 267.218 158.046 L 267.218 171.812 L 272.252 171.812 C 281 171.812 283.09 167.835 283.09 167.835 L 283.09 173.394 L 260.644 173.394 C 260.644 173.394 261.37 171.299 261.37 168.306 Z" fill="rgb(255, 255, 255)"></path><path d="M 285.609 143.552 L 293.675 143.552 L 310.317 165.142 L 310.317 154.325 C 310.317 147.956 306.859 143.552 306.859 143.552 L 311.852 143.552 L 311.852 173.394 L 309.291 173.394 L 287.912 145.561 L 287.912 157.274 C 287.912 166.766 292.052 173.392 292.052 173.392 L 286.333 173.392 L 286.333 148.596 C 286.333 145.646 285.607 143.552 285.607 143.552 Z" fill="rgb(255, 255, 255)"></path><path d="M 66.804 171.808 C 62.894 171.667 60.821 162.377 53.495 158.558 L 54.562 158.558 C 59.17 158.558 62.925 156.591 62.925 151.076 C 62.925 145.561 59.17 143.552 54.562 143.552 L 40.225 143.552 C 40.225 143.552 40.951 145.646 40.951 148.596 L 40.951 168.304 C 40.951 171.297 40.225 173.392 40.225 173.392 L 47.523 173.392 C 47.523 173.392 46.797 171.297 46.797 168.304 L 46.797 158.556 C 52.375 158.556 51.44 172.892 66.124 173.379 L 66.807 171.808 Z M 46.795 157.018 L 46.795 145.09 L 52.854 145.09 C 55.201 145.09 57.121 146.672 57.121 151.076 C 57.121 155.48 55.201 157.018 52.854 157.018 Z" fill="rgb(255, 255, 255)"></path></g></svg>